<svg width="102" height="27" viewBox="0 0 102 27" fill="none" xmlns="http://www.w3.org/2000/svg">
<path d="M0 21.0732V0H3.21681V10.0633H3.47707L12.4196 0H16.4692L7.87025 9.48704L16.5005 21.0732H12.6278L5.73612 11.6582L3.21681 14.5187V21.0732H0Z" fill="#22201F"/>
<path d="M22.6984 21.423C21.6851 21.423 20.769 21.2378 19.95 20.8674C19.1311 20.4901 18.4822 19.9447 18.0033 19.2313C17.5314 18.5179 17.2954 17.6433 17.2954 16.6075C17.2954 15.7157 17.4689 14.9817 17.8159 14.4055C18.1629 13.8293 18.6314 13.3731 19.2213 13.037C19.8112 12.7008 20.4706 12.447 21.1993 12.2755C21.928 12.104 22.6706 11.9737 23.4271 11.8845C24.3849 11.7748 25.1622 11.6856 25.759 11.617C26.3559 11.5415 26.7897 11.4215 27.0603 11.2569C27.331 11.0922 27.4663 10.8247 27.4663 10.4543V10.3822C27.4663 9.48361 27.2096 8.78735 26.696 8.29344C26.1893 7.79954 25.4328 7.55259 24.4265 7.55259C23.3785 7.55259 22.5526 7.78239 21.9488 8.242C21.352 8.69474 20.939 9.19893 20.71 9.75457L17.7847 9.09604C18.1317 8.13567 18.6383 7.36052 19.3046 6.77058C19.9778 6.17378 20.7516 5.74162 21.6261 5.47408C22.5006 5.1997 23.4202 5.0625 24.3849 5.0625C25.0234 5.0625 25.7 5.13796 26.4149 5.28887C27.1367 5.43293 27.8099 5.70046 28.4345 6.09146C29.0661 6.48247 29.5831 7.04154 29.9857 7.76867C30.3882 8.48895 30.5895 9.42531 30.5895 10.5777V21.0732H27.5496V18.9123H27.4247C27.2234 19.3102 26.9215 19.7012 26.519 20.0854C26.1165 20.4695 25.5994 20.7885 24.9678 21.0423C24.3363 21.2961 23.5798 21.423 22.6984 21.423ZM23.3751 18.9535C24.2357 18.9535 24.9713 18.7854 25.5821 18.4493C26.1997 18.1132 26.6682 17.6742 26.9875 17.1322C27.3137 16.5835 27.4768 15.997 27.4768 15.3727V13.3354C27.3657 13.4451 27.1506 13.548 26.8313 13.6441C26.519 13.7332 26.1616 13.8121 25.759 13.8807C25.3565 13.9425 24.9644 14.0008 24.5827 14.0556C24.201 14.1037 23.8817 14.1448 23.6249 14.1791C23.0211 14.2546 22.4694 14.3815 21.9697 14.5598C21.4769 14.7382 21.0813 14.9954 20.7829 15.3316C20.4914 15.6608 20.3456 16.0998 20.3456 16.6486C20.3456 17.4101 20.6302 17.9863 21.1993 18.3773C21.7684 18.7614 22.4936 18.9535 23.3751 18.9535Z" fill="#22201F"/>
<path d="M34.9578 27C34.4928 27 34.0694 26.9623 33.6877 26.8868C33.306 26.8182 33.0214 26.7428 32.834 26.6604L33.5836 24.1395C34.1527 24.2904 34.6593 24.3556 35.1035 24.335C35.5477 24.3144 35.9398 24.1498 36.2799 23.8411C36.6269 23.5324 36.9323 23.0282 37.196 22.3285L37.5812 21.279L31.7305 5.26829H35.0619L39.1115 17.5335H39.2781L43.3277 5.26829H46.6694L40.0797 23.1825C39.7743 24.0057 39.3856 24.702 38.9137 25.2713C38.4418 25.8476 37.8796 26.2797 37.2272 26.5678C36.5748 26.8559 35.8183 27 34.9578 27Z" fill="#22201F"/>
<path d="M58.5514 14.5187V5.26829H61.6745V21.0732H58.6139V18.3361H58.4473C58.0795 19.1799 57.4896 19.883 56.6776 20.4455C55.8725 21.0011 54.8696 21.279 53.669 21.279C52.6418 21.279 51.7326 21.056 50.9414 20.6101C50.1572 20.1574 49.5395 19.4886 49.0884 18.6037C48.6442 17.7188 48.4221 16.6246 48.4221 15.3213V5.26829H51.5348V14.9508C51.5348 16.0278 51.8367 16.8853 52.4405 17.5232C53.0443 18.1612 53.8286 18.4802 54.7933 18.4802C55.3763 18.4802 55.9558 18.3361 56.5318 18.048C57.1148 17.7599 57.5971 17.3243 57.9789 16.7412C58.3675 16.1582 58.5584 15.4173 58.5514 14.5187Z" fill="#22201F"/>
<path d="M75.4799 27V18.6139H75.2925C75.1051 18.9501 74.8344 19.3342 74.4805 19.7664C74.1335 20.1985 73.6546 20.5758 73.0438 20.8982C72.4331 21.2207 71.6419 21.3819 70.6703 21.3819C69.3794 21.3819 68.2273 21.056 67.214 20.4043C66.2077 19.7458 65.4165 18.8095 64.8405 17.5953C64.2714 16.3742 63.9868 14.9097 63.9868 13.2016C63.9868 11.4935 64.2748 10.0324 64.8509 8.81822C65.4338 7.60404 66.232 6.67454 67.2453 6.02973C68.2585 5.38491 69.4071 5.0625 70.6911 5.0625C71.6835 5.0625 72.4817 5.22713 73.0855 5.5564C73.6962 5.87881 74.1682 6.2561 74.5013 6.68826C74.8414 7.12043 75.1051 7.50114 75.2925 7.83041H75.5527V5.26829H78.5926V27H75.4799ZM71.3574 18.758C72.2526 18.758 73.0091 18.5248 73.6268 18.0583C74.2514 17.585 74.7234 16.9299 75.0426 16.093C75.3688 15.2561 75.5319 14.282 75.5319 13.1707C75.5319 12.0732 75.3723 11.1128 75.053 10.2896C74.7338 9.46646 74.2653 8.82508 73.6476 8.36547C73.03 7.90587 72.2665 7.67607 71.3574 7.67607C70.4204 7.67607 69.6396 7.91616 69.015 8.39634C68.3904 8.87652 67.9185 9.53163 67.5992 10.3617C67.2869 11.1917 67.1307 12.128 67.1307 13.1707C67.1307 14.2271 67.2904 15.1772 67.6096 16.021C67.9289 16.8647 68.4008 17.5335 69.0254 18.0274C69.657 18.5145 70.4343 18.758 71.3574 18.758Z" fill="#22201F"/>
<path d="M91.7342 14.5187V5.26829H94.8573V21.0732H91.7967V18.3361H91.6301C91.2623 19.1799 90.6724 19.883 89.8603 20.4455C89.0553 21.0011 88.0524 21.279 86.8517 21.279C85.8246 21.279 84.9154 21.056 84.1242 20.6101C83.34 20.1574 82.7223 19.4886 82.2712 18.6037C81.827 17.7188 81.6049 16.6246 81.6049 15.3213V5.26829H84.7176V14.9508C84.7176 16.0278 85.0195 16.8853 85.6233 17.5232C86.2271 18.1612 87.0114 18.4802 87.9761 18.4802C88.5591 18.4802 89.1386 18.3361 89.7146 18.048C90.2976 17.7599 90.7799 17.3243 91.1617 16.7412C91.5503 16.1582 91.7412 15.4173 91.7342 14.5187Z" fill="#22201F"/>
<path d="M99.9179 21.2687C99.3488 21.2687 98.8595 21.0697 98.4501 20.6719C98.0406 20.2671 97.8359 19.7801 97.8359 19.2107C97.8359 18.6482 98.0406 18.1681 98.4501 17.7702C98.8595 17.3655 99.3488 17.1631 99.9179 17.1631C100.487 17.1631 100.976 17.3655 101.386 17.7702C101.795 18.1681 102 18.6482 102 19.2107C102 19.588 101.903 19.9345 101.709 20.25C101.521 20.5587 101.271 20.8056 100.959 20.9909C100.647 21.1761 100.3 21.2687 99.9179 21.2687Z" fill="#22201F"/>
</svg>
